PathFileType	4	(X/Y/Z)	/Users/niels/Desktop/University/Third Semester/Perception and Action/Exam/Gymnastics Motion Tracking/Code for Gym Tracking/Analyzed Data/Webcam_Backflip/id7_4_trajectory_Sports2D/id7_4_trajectory_Sports2D_px_person00.trc
DataRate	CameraRate	NumFrames	NumMarkers	Units	OrigDataRate	OrigDataStartFrame	OrigNumFrames
29.8125	29.8125	7	22	m	29.8125	80	160
Frame#	Time	Hip			RHip			RKnee			RAnkle			RBigToe			RSmallToe			RHeel			LHip			LKnee			LAnkle			LBigToe			LSmallToe			LHeel			Neck			Head			Nose			RShoulder			RElbow			RWrist			LShoulder			LElbow			LWrist		
		X1	Y1	Z1	X2	Y2	Z2	X3	Y3	Z3	X4	Y4	Z4	X5	Y5	Z5	X6	Y6	Z6	X7	Y7	Z7	X8	Y8	Z8	X9	Y9	Z9	X10	Y10	Z10	X11	Y11	Z11	X12	Y12	Z12	X13	Y13	Z13	X14	Y14	Z14	X15	Y15	Z15	X16	Y16	Z16	X17	Y17	Z17	X18	Y18	Z18	X19	Y19	Z19	X20	Y20	Z20	X21	Y21	Z21	X22	Y22	Z22
80	2.683438155136268	0.48513450083950477	-0.830441934677567	0.0	0.48856599557104863	-0.842123511556498	0.0	0.5394980180515436	-0.7979272225006062	0.0	0.6478303227559394	-0.7612594264346858	0.0	0.6764541861329365	-0.7470957714752179	0.0	0.6797529104956748	-0.7605105433048118	0.0	0.6549435503531785	-0.76178865523787	0.0	0.4859808111883633	-0.8200172911664657	0.0	0.5058821924488973	-0.7326898406780142	0.0	0.6024218540435667	-0.6654255290811891	0.0	0.5941482755559264	-0.6465524898240017	0.0	0.6023356677530263	-0.6493438811190801	0.0	0.614231696350758	-0.667101625427284	0.0	0.3795453297785739	-0.7876641993199	0.0	0.3757937887383325	-0.7172947018349102	0.0	0.40759183018668355	-0.7514442312584173	0.0	0.36398829401798666	-0.8116176155773543	0.0	0.3876849688127101	-0.8371003341055175	0.0	0.4287150673504284	-0.8215387334697198	0.0	0.4016890936013021	-0.7792873871349753	0.0	0.4305213791081668	-0.7993783856119223	0.0	0.4560520000569893	-0.8026330186337228	0.0
81	2.716981132075471	0.48329345327584133	-0.8242878721422278	0.0	0.4853714943943653	-0.8371450023061577	0.0	0.5363052476890429	-0.7966410991726927	0.0	0.6436944810337643	-0.7748583749713341	0.0	0.6750192494861245	-0.7622849666011918	0.0	0.6769060797653026	-0.7766684566833233	0.0	0.6518353745112729	-0.7765238595331982	0.0	0.48409571333263995	-0.8131046600162462	0.0	0.4970643334336002	-0.7225974411820766	0.0	0.5904767963758529	-0.6588236077575049	0.0	0.5787535048136808	-0.6378235018029192	0.0	0.589741125726101	-0.6403068669697699	0.0	0.6023994625922903	-0.6609416509235659	0.0	0.3756008727486984	-0.7826252314572275	0.0	0.37010091921471544	-0.7106130431013892	0.0	0.4017222799989195	-0.743387376033509	0.0	0.36038164312855375	-0.8071810299569196	0.0	0.3906075633095049	-0.8328718017416298	0.0	0.4313945286981262	-0.8164072525353889	0.0	0.3968463570720291	-0.7706936549057682	0.0	0.4267094208181923	-0.7921170627451433	0.0	0.45218177686618766	-0.798704983520953	0.0
82	2.7505241090146746	0.4846837755386626	-0.8105721004308247	0.0	0.48503902651130115	-0.8253941273562484	0.0	0.5388305496638176	-0.7893329689115549	0.0	0.64400417396665	-0.782752592867471	0.0	0.6773170772964403	-0.768195797551076	0.0	0.6781380492922122	-0.7833734060739276	0.0	0.6534359636829018	-0.7859358092094071	0.0	0.48616101184541105	-0.7980823572457184	0.0	0.4938291129059906	-0.7045555885434694	0.0	0.5822594654698285	-0.6423415963204778	0.0	0.5697077849593921	-0.6154912449220206	0.0	0.5792900727676425	-0.6175398210146514	0.0	0.5944105891880499	-0.6448585982113566	0.0	0.37417978761714843	-0.7686335736078755	0.0	0.366074331222714	-0.6957293022620779	0.0	0.3974067707383947	-0.7272058773295723	0.0	0.35901281275620844	-0.7945713820369029	0.0	0.3924506687037683	-0.82541640707615	0.0	0.4355456813382292	-0.8084084558040957	0.0	0.39496721448539485	-0.7537665731595136	0.0	0.4250764249006511	-0.7786937548433859	0.0	0.4531704242055738	-0.7880425869451299	0.0
83	2.784067085953878	0.4880554935942343	-0.7915897042676531	0.0	0.486396340477716	-0.8084267715502276	0.0	0.544541245140493	-0.7756527497167836	0.0	0.6470143294357713	-0.782361732995124	0.0	0.6812328051096691	-0.7651002925396149	0.0	0.6813000053097127	-0.7803138944000954	0.0	0.6575859155553117	-0.7870739939821801	0.0	0.490820547663113	-0.7776364651274389	0.0	0.49524956701698214	-0.6814305426864463	0.0	0.5787341591609646	-0.6188406607770582	0.0	0.5662106586367109	-0.5862131843727646	0.0	0.5729230037806948	-0.5878901560958834	0.0	0.5909113859992431	-0.6214153331155988	0.0	0.3749259332092931	-0.7474287587737343	0.0	0.3647232809596361	-0.6745823906594536	0.0	0.3953218338226336	-0.7056617369366619	0.0	0.35944847880639097	-0.7751158643580033	0.0	0.392432078444525	-0.8149719227930541	0.0	0.4397026344064071	-0.7993205118820229	0.0	0.39603968034839576	-0.7313459878909258	0.0	0.42540856736794735	-0.7611638363312021	0.0	0.4590588351653426	-0.7727747932275931	0.0
84	2.817610062893081	0.4922420514713041	-0.7698997914623208	0.0	0.48860938017552674	-0.788209159596206	0.0	0.551277378918254	-0.7565858500421071	0.0	0.6513907092313161	-0.7739286250208487	0.0	0.6856717732444738	-0.7546084047938582	0.0	0.6852156264339019	-0.7692038526728128	0.0	0.6628884414259616	-0.7798528302422414	0.0	0.49675097693741926	-0.7545878386118641	0.0	0.5003361317494264	-0.6560932111382773	0.0	0.5802506762136638	-0.5919206301371779	0.0	0.5677778847744649	-0.5553718797922794	0.0	0.5721969092749243	-0.5568392966084584	0.0	0.5921618282837932	-0.59410862164211	0.0	0.37743186950740665	-0.7217907999739057	0.0	0.3662760947545095	-0.6497463256633151	0.0	0.3955642251011926	-0.6817974629850961	0.0	0.3612057108900387	-0.7512176573025903	0.0	0.3904665470162178	-0.801613828714273	0.0	0.4410330301430066	-0.7908547924453015	0.0	0.39980017872007195	-0.7062040664762524	0.0	0.4273941427557366	-0.7412294674863352	0.0	0.4680327569038953	-0.755763103197251	0.0
85	2.8511530398322846	0.4963112628039501	-0.7478216306764053	0.0	0.4911777460577766	-0.7668091524589168	0.0	0.5574520378840458	-0.7342478671014238	0.0	0.6562082211081096	-0.7599216144146997	0.0	0.6904183909497095	-0.7390927246456536	0.0	0.6896111411934313	-0.7529522461671998	0.0	0.6685872297051958	-0.7667422549280593	0.0	0.5028563970459694	-0.7312826300145162	0.0	0.5080418398521772	-0.6310607830552158	0.0	0.5863704394236182	-0.5650454739970109	0.0	0.5740124828978936	-0.5259784283146061	0.0	0.5773944627636863	-0.5273667610953658	0.0	0.5978604490022702	-0.5666086503051224	0.0	0.3812452829227359	-0.6948537899021143	0.0	0.37017701141501513	-0.6239350475910156	0.0	0.3975498575608164	-0.6581521079285877	0.0	0.3638549577910482	-0.7258195742591348	0.0	0.3872134699966353	-0.7857561811738348	0.0	0.43748499767634463	-0.7842705149177603	0.0	0.4056499245072904	-0.6805673874398529	0.0	0.4309868972921519	-0.7201408533934117	0.0	0.47768538279648953	-0.7394994083781539	0.0
86	2.884696016771488	0.4997831170281287	-0.7271450437590814	0.0	0.49386569072510705	-0.7461358769776532	0.0	0.5620596684232443	-0.711056575700267	0.0	0.6609323851418349	-0.7434000676670628	0.0	0.6956439530027158	-0.7212059977036438	0.0	0.6946140474459085	-0.7346623946744226	0.0	0.6742659881307067	-0.751121031627039	0.0	0.5084790436948462	-0.7093837474676161	0.0	0.5173038282056385	-0.6082781445753068	0.0	0.5961733079585858	-0.541037939482358	0.0	0.5844566511521359	-0.499778223394963	0.0	0.5878258353142591	-0.5011275263946995	0.0	0.6072733624230278	-0.542118150367207	0.0	0.3858782904393652	-0.6693275860307615	0.0	0.37538001306308383	-0.5994488379502998	0.0	0.40042019574657495	-0.6363357387454738	0.0	0.36710048072682205	-0.7015927577454745	0.0	0.3837429207081996	-0.7684915512877835	0.0	0.4290183920678884	-0.7803655882831985	0.0	0.41274589077313806	-0.6561580913027169	0.0	0.43632904710585074	-0.6991195225353202	0.0	0.4862113719352332	-0.7255818037781422	0.0
